<svg version="1.1" xmlns="http://www.w3.org/2000/svg" viewBox="0 0 673.5094456249735 348.796875" width="673.5094456249735" height="348.796875">
  <!-- svg-source:excalidraw -->
  
  <defs>
    <style class="style-fonts">
      @font-face {
        font-family: "Virgil";
        src: url("https://excalidraw.com/Virgil.woff2");
      }
      @font-face {
        font-family: "Cascadia";
        src: url("https://excalidraw.com/Cascadia.woff2");
      }
      @font-face {
        font-family: "Assistant";
        src: url("https://excalidraw.com/Assistant-Regular.woff2");
      }
    </style>
    
  </defs>
  <g stroke-linecap="round" transform="translate(260.73115583005165 119.4375) rotate(0 40.080078125 66.052734375)"><path d="M20.04 0 C30.2 -0.14, 41.07 -0.5, 60.12 0 M20.04 0 C34.34 -1.12, 46.37 0.75, 60.12 0 M60.12 0 C73.35 0.56, 81.68 5.86, 80.16 20.04 M60.12 0 C74.78 0.77, 80.9 6.91, 80.16 20.04 M80.16 20.04 C77.32 39.16, 79.99 60.41, 80.16 112.07 M80.16 20.04 C81.46 54.98, 81.03 88.11, 80.16 112.07 M80.16 112.07 C81.73 123.62, 71.62 130.46, 60.12 132.11 M80.16 112.07 C77.92 126.77, 71.77 131.04, 60.12 132.11 M60.12 132.11 C48.32 130.85, 32.22 130.17, 20.04 132.11 M60.12 132.11 C47.03 131.86, 34.85 132.66, 20.04 132.11 M20.04 132.11 C7.78 133.16, -1.26 127.13, 0 112.07 M20.04 132.11 C6.8 132.82, 1.72 126.25, 0 112.07 M0 112.07 C1.98 79.6, 0.11 52.75, 0 20.04 M0 112.07 C-1.19 79.32, -0.62 45.64, 0 20.04 M0 20.04 C0.5 7.25, 4.79 -1.81, 20.04 0 M0 20.04 C-1.4 7.36, 6.35 0.37, 20.04 0" stroke="#1e1e1e" stroke-width="2" fill="none"></path></g><g stroke-linecap="round"><g transform="translate(261.71943708005165 165.8359375) rotate(0 39.96875 -0.013671875)"><path d="M-0.22 -0.13 C13.31 0.19, 66.67 1.04, 80.04 1.14 M-1.8 -1.25 C11.69 -1.16, 65.63 -0.3, 79.14 -0.37" stroke="#1e1e1e" stroke-width="2" fill="none"></path></g></g><mask></mask><g stroke-linecap="round"><g transform="translate(297.62178083005165 58.25) rotate(0 0.130859375 30.609375)"><path d="M0.26 -1.13 C0.24 8.95, -0.62 50.33, -0.44 60.89 M-1.06 0.9 C-0.67 11.1, 1.53 52.34, 1.91 62.25" stroke="#1e1e1e" stroke-width="2" fill="none"></path></g></g><mask></mask><g stroke-linecap="round"><g transform="translate(299.21553083005165 254.04296875) rotate(0 1.2421875 36.619140625)"><path d="M-0.38 0.74 C-0.05 12.92, 1.7 61.47, 2.21 73.56 M1.63 0.09 C1.75 11.85, 1.05 59.19, 1.11 71.6" stroke="#1e1e1e" stroke-width="2" fill="none"></path></g></g><mask></mask><g stroke-linecap="round" transform="translate(296.60224958005165 10) rotate(0 2.076171875 2.763671875)"><path d="M2.45 -0.26 C2.85 -0.24, 2.89 0.25, 3.16 0.74 C3.44 1.23, 4.02 2.16, 4.09 2.7 C4.17 3.23, 3.79 3.51, 3.6 3.95 C3.41 4.4, 3.39 5.11, 2.97 5.39 C2.54 5.66, 1.47 5.78, 1.05 5.6 C0.63 5.41, 0.64 4.83, 0.45 4.28 C0.25 3.73, -0.22 2.92, -0.13 2.31 C-0.05 1.7, 0.55 1.03, 0.98 0.62 C1.41 0.21, 2.21 -0.02, 2.44 -0.14 C2.68 -0.27, 2.45 -0.19, 2.38 -0.15 M1.96 -0.42 C2.41 -0.48, 3.46 0.26, 3.84 0.69 C4.22 1.12, 4.21 1.55, 4.27 2.15 C4.32 2.76, 4.37 3.71, 4.17 4.31 C3.97 4.91, 3.64 5.67, 3.07 5.75 C2.5 5.84, 1.25 5.04, 0.74 4.8 C0.24 4.57, 0.11 4.83, 0.06 4.33 C0 3.83, 0.31 2.42, 0.39 1.8 C0.48 1.17, 0.23 0.77, 0.58 0.55 C0.93 0.34, 2.24 0.66, 2.52 0.5 C2.8 0.34, 2.26 -0.36, 2.26 -0.4" stroke="none" stroke-width="0" fill="#1e1e1e"></path><path d="M2.2 0.03 C2.65 0.04, 2.94 0.49, 3.25 0.82 C3.56 1.15, 3.92 1.52, 4.04 2.01 C4.16 2.51, 4.1 3.3, 3.96 3.79 C3.82 4.28, 3.62 4.68, 3.19 4.93 C2.76 5.19, 1.83 5.47, 1.4 5.32 C0.96 5.18, 0.79 4.46, 0.57 4.04 C0.35 3.63, 0.04 3.35, 0.08 2.85 C0.12 2.35, 0.52 1.54, 0.83 1.04 C1.14 0.54, 1.78 0.01, 1.91 -0.14 C2.05 -0.28, 1.65 0.13, 1.66 0.15 M1.55 -0.13 C2.07 -0.17, 2.98 0.7, 3.48 1.06 C3.97 1.43, 4.5 1.51, 4.53 2.04 C4.57 2.57, 3.99 3.73, 3.7 4.23 C3.4 4.73, 3.04 4.85, 2.74 5.04 C2.43 5.23, 2.22 5.48, 1.87 5.39 C1.52 5.31, 0.89 5.07, 0.64 4.53 C0.39 3.99, 0.31 2.78, 0.37 2.14 C0.42 1.49, 0.76 1.02, 0.98 0.65 C1.21 0.28, 1.54 0.05, 1.71 -0.07 C1.88 -0.19, 1.93 -0.15, 1.99 -0.07" stroke="#1e1e1e" stroke-width="2" fill="none"></path></g><g stroke-linecap="round" transform="translate(295.74092145505165 32.103515625) rotate(0 2.076171875 2.763671875)"><path d="M1.75 -0.08 C2.15 -0.07, 2.74 0.34, 3.11 0.74 C3.47 1.14, 3.76 1.77, 3.94 2.34 C4.13 2.91, 4.35 3.68, 4.2 4.16 C4.04 4.63, 3.47 5.02, 3.01 5.18 C2.55 5.34, 1.84 5.23, 1.42 5.12 C1 5, 0.77 4.87, 0.5 4.46 C0.22 4.04, -0.26 3.24, -0.22 2.62 C-0.19 2.01, 0.34 1.18, 0.71 0.8 C1.09 0.41, 1.79 0.41, 2.03 0.31 C2.28 0.21, 2.13 0.27, 2.17 0.21 M2.52 0.26 C2.99 0.19, 3.68 0.14, 4 0.55 C4.32 0.97, 4.5 2.23, 4.45 2.77 C4.41 3.32, 3.99 3.4, 3.72 3.81 C3.44 4.22, 3.18 5.07, 2.81 5.24 C2.44 5.4, 1.93 4.97, 1.53 4.8 C1.12 4.63, 0.63 4.64, 0.35 4.22 C0.08 3.79, -0.19 2.79, -0.15 2.25 C-0.11 1.71, 0.26 1.28, 0.57 0.99 C0.89 0.7, 1.46 0.6, 1.73 0.5 C2 0.4, 2.15 0.46, 2.22 0.39" stroke="none" stroke-width="0" fill="#1e1e1e"></path><path d="M2.06 0.27 C2.5 0.32, 3.18 0.8, 3.56 1.13 C3.94 1.47, 4.39 1.73, 4.37 2.25 C4.35 2.78, 3.7 3.72, 3.44 4.29 C3.18 4.86, 3.24 5.54, 2.83 5.66 C2.42 5.79, 1.42 5.32, 0.98 5.06 C0.54 4.79, 0.3 4.59, 0.2 4.08 C0.11 3.58, 0.34 2.59, 0.41 2.03 C0.47 1.46, 0.29 1.01, 0.6 0.68 C0.92 0.34, 2.06 0.09, 2.3 0.01 C2.54 -0.07, 2.04 0.11, 2.04 0.21 M2.19 0.12 C2.65 0.04, 3.33 -0.14, 3.71 0.15 C4.08 0.43, 4.47 1.2, 4.44 1.83 C4.41 2.46, 3.68 3.3, 3.5 3.93 C3.32 4.56, 3.7 5.27, 3.36 5.59 C3.02 5.91, 1.99 6.03, 1.47 5.86 C0.96 5.68, 0.43 5.12, 0.27 4.53 C0.1 3.93, 0.51 2.87, 0.48 2.29 C0.46 1.71, -0.14 1.49, 0.1 1.04 C0.33 0.6, 1.68 -0.3, 1.9 -0.39 C2.13 -0.49, 1.49 0.4, 1.46 0.48" stroke="#1e1e1e" stroke-width="2" fill="none"></path></g><g stroke-linecap="round"><g transform="translate(346.05537458005165 166.3515625) rotate(0 33.669921875 -7.732421875)"><path d="M0.73 0.61 C6.65 -1.81, 24.81 -11.48, 36.04 -14.04 C47.26 -16.6, 62.9 -14.31, 68.09 -14.74 M-0.35 -0.12 C5.47 -2.42, 24.35 -10.02, 35.69 -12.78 C47.04 -15.55, 62.45 -16.14, 67.71 -16.71" stroke="#1e1e1e" stroke-width="2" fill="none"></path></g></g><mask></mask><g transform="translate(419.71943708005165 138.87890625) rotate(0 32.3499755859375 12.5)"><text x="0" y="17.52" font-family="Virgil, Segoe UI Emoji" font-size="20px" fill="#1e1e1e" text-anchor="start" style="white-space: pre;" direction="ltr" dominant-baseline="alphabetic">Median</text></g><g stroke-linecap="round"><g transform="translate(336.58662458005165 118.4140625) rotate(0 49.837890625 0.33203125)"><path d="M0.06 1.15 C16.58 1.51, 83.4 1.51, 100.2 1.36 M-1.36 0.71 C14.94 0.79, 82.51 -0.5, 99.52 -0.39" stroke="#1e1e1e" stroke-width="2" fill="none"></path></g></g><mask></mask><g transform="translate(450.05928083005165 107.26171875) rotate(0 13.859992980957031 12.5)"><text x="0" y="17.52" font-family="Virgil, Segoe UI Emoji" font-size="20px" fill="#1e1e1e" text-anchor="start" style="white-space: pre;" direction="ltr" dominant-baseline="alphabetic">Q3</text></g><g transform="translate(489.39521833005165 107.234375) rotate(0 73.11994171142578 12.5)"><text x="0" y="17.52" font-family="Virgil, Segoe UI Emoji" font-size="20px" fill="#1e1e1e" text-anchor="start" style="white-space: pre;" direction="ltr" dominant-baseline="alphabetic">(75% Quartile)</text></g><g stroke-linecap="round"><g transform="translate(335.11787458005165 253.5859375) rotate(0 50.12109375 -0.41796875)"><path d="M1.05 -0.27 C17.58 -0.46, 82.34 -1.08, 99.07 -1.24 M0.14 -1.46 C17.04 -1.48, 84.31 -0.14, 101.16 0.09" stroke="#1e1e1e" stroke-width="2" fill="none"></path></g></g><mask></mask><g transform="translate(452.42256208005165 241.5) rotate(0 9.759994506835938 12.5)"><text x="0" y="17.52" font-family="Virgil, Segoe UI Emoji" font-size="20px" fill="#1e1e1e" text-anchor="start" style="white-space: pre;" direction="ltr" dominant-baseline="alphabetic">Q1</text></g><g transform="translate(481.29871411862587 242.0703125) rotate(0 74.85993957519531 12.5)"><text x="0" y="17.52" font-family="Virgil, Segoe UI Emoji" font-size="20px" fill="#1e1e1e" text-anchor="start" style="white-space: pre;" direction="ltr" dominant-baseline="alphabetic">(25% Quartile)</text></g><g stroke-linecap="round"><g transform="translate(309.55146833005165 58.57421875) rotate(0 44.826171875 0.181640625)"><path d="M0.5 -0.87 C15.75 -0.73, 75.89 0.59, 90.56 0.93 M-0.7 1.29 C14.56 1.06, 74.84 -0.56, 90.09 -0.9" stroke="#1e1e1e" stroke-width="2" fill="none"></path></g></g><mask></mask><g transform="translate(405.12959333005165 47.12109375) rotate(0 129.18992614746094 12.5)"><text x="0" y="17.52" font-family="Virgil, Segoe UI Emoji" font-size="20px" fill="#1e1e1e" text-anchor="start" style="white-space: pre;" direction="ltr" dominant-baseline="alphabetic">Maximum (Q3 + 1.5 * IQR)</text></g><g transform="translate(405.6818546825907 313.796875) rotate(0 117.5199203491211 12.5)"><text x="0" y="17.52" font-family="Virgil, Segoe UI Emoji" font-size="20px" fill="#1e1e1e" text-anchor="start" style="white-space: pre;" direction="ltr" dominant-baseline="alphabetic">Minimum (Q1 - 1.5 * IQR)</text></g><g stroke-linecap="round"><g transform="translate(309.13309266009173 328.05238141741603) rotate(0 44.826171875 0.181640625)"><path d="M0.52 1.01 C15.33 0.94, 75.09 -0.32, 89.87 -0.5 M-0.67 0.49 C13.91 0.56, 74.23 0.5, 89.03 0.58" stroke="#1e1e1e" stroke-width="2" fill="none"></path></g></g><mask></mask><g stroke-linecap="round"><g transform="translate(285.10615583005165 33.8828125) rotate(0 -33.568359375 -5.779296875)"><path d="M0.9 -0.48 C-4.99 -2.46, -25.24 -11.93, -36.45 -11.83 C-47.66 -11.74, -61.3 -1.9, -66.37 0.1 M-0.09 -1.78 C-6.06 -3.59, -26.44 -10.41, -37.55 -10.44 C-48.65 -10.47, -61.91 -3.36, -66.74 -1.95" stroke="#1e1e1e" stroke-width="2" fill="none"></path></g></g><mask></mask><g transform="translate(141.56709333005165 22.84375) rotate(0 33.179962158203125 12.5)"><text x="0" y="17.52" font-family="Virgil, Segoe UI Emoji" font-size="20px" fill="#1e1e1e" text-anchor="start" style="white-space: pre;" direction="ltr" dominant-baseline="alphabetic">Outlier</text></g><g stroke-linecap="round"><g transform="translate(224.96156244953238 123.06834571645726) rotate(0 -0.134765625 65.62109375)"><path d="M-1.15 0.28 C-1.35 21.99, -0.41 109.65, -0.13 131.39 M0.45 -0.62 C0.01 21.82, -0.96 110.95, -1 133" stroke="#1e1e1e" stroke-width="2" fill="none"></path></g></g><mask></mask><g stroke-linecap="round"><g transform="translate(214.56732166606696 123.41218317088442) rotate(0 10.302734375 0.24609375)"><path d="M0.46 -0.16 C3.88 -0.14, 17.58 -0.15, 20.91 0.03 M0.04 -0.71 C3.37 -0.63, 17.31 0.35, 20.63 0.5" stroke="#1e1e1e" stroke-width="2" fill="none"></path></g></g><mask></mask><g stroke-linecap="round"><g transform="translate(213.13581322998232 255.87470293045828) rotate(0 10.302734375 0.24609375)"><path d="M-0.5 0.25 C2.92 0.22, 16.92 0.1, 20.36 0.16 M0.25 -0.09 C3.59 -0.1, 16.3 0.46, 19.8 0.69" stroke="#1e1e1e" stroke-width="2" fill="none"></path></g></g><mask></mask><g transform="translate(10 116.37533471397467) rotate(0 98.81991577148438 12.5)"><text x="0" y="17.52" font-family="Virgil, Segoe UI Emoji" font-size="20px" fill="#1e1e1e" text-anchor="start" style="white-space: pre;" direction="ltr" dominant-baseline="alphabetic">Inter-quartile range</text></g><g transform="translate(27.92641923392182 182.55352860717608) rotate(0 78.95994567871094 12.5)"><text x="0" y="17.52" font-family="Virgil, Segoe UI Emoji" font-size="20px" fill="#1e1e1e" text-anchor="start" style="white-space: pre;" direction="ltr" dominant-baseline="alphabetic">50% of values </text></g><g transform="translate(74.91611339453459 144.15989152821675) rotate(0 26.809982299804688 12.5)"><text x="0" y="17.52" font-family="Virgil, Segoe UI Emoji" font-size="20px" fill="#1e1e1e" text-anchor="start" style="white-space: pre;" direction="ltr" dominant-baseline="alphabetic">(IQR)</text></g></svg>